# xmcd CD database file generated by OrangeCD 5.1
#
# Track frame offsets:
#	150
#	19703
#	45997
#	64697
#	79656
#	101173
#	127380
#	145973
#	169058
#	187544
#	206965
#
# Disc length: 3042 seconds
#
# Revision: 1
# Processed by: cddbd v1.5PL3 Copyright (c) Steve Scherf et al.
# Submitted via: OrangeCD 5.1
#
DISCID=960be00b
DTITLE=Various Artist - Jazz a la Mexicana Vol. 1
DYEAR=1900
DGENRE=Jazz
TTITLE0=Consuelo Velázquez - Bésame Mucho
TTITLE1=Bernardo Ezeta - Monte Alban
TTITLE2=Miguel Villicaña - Ana Elena
TTITLE3=Armando Manzanero - Mi Bolero
TTITLE4=Enrique Neri - Awami
TTITLE5=Eugenio Toussaint - Xel-Ha
TTITLE6=Rodolfo Sánchez - Fiesta Latina
TTITLE7=Luis Demetrio - La Puerta
TTITLE8=José Sabre Marroquín - Nocturnal
TTITLE9=Armando Manzanero - Esta Tarde Vi Llover
TTITLE10=Enrique Neri - Azul Y Blanco
EXTD=
EXTT0=
EXTT1=
EXTT2=
EXTT3=
EXTT4=
EXTT5=
EXTT6=
EXTT7=
EXTT8=
EXTT9=
EXTT10=
PLAYORDER=
